<svg id="SvgjsSvg79267" width="13" height="22" xmlns="http://www.w3.org/2000/svg" version="1.1" xmlns:xlink="http://www.w3.org/1999/xlink" xmlns:svgjs="http://svgjs.com/svgjs" viewBox="0 0 13 22" opacity="1"><defs id="SvgjsDefs79268"></defs><svg version="1.1" xmlns="http://www.w3.org/2000/svg" xmlns:xlink="http://www.w3.org/1999/xlink" width="13" height="22"><g><path stroke="none" paint-order="stroke fill markers" fill-rule="evenodd" d=" M 2.3069076538085938 16.72249174118042 C 2.3069076538085938 16.72249174118042 7.290008544921875 21.724918842315674 7.290008544921875 21.724918842315674 C 7.679222106933594 22.11562728881836 8.309906005859375 22.11562728881836 8.699234008789062 21.724918842315674 C 8.699234008789062 21.724918842315674 13.682220458984375 16.72249174118042 13.682220458984375 16.72249174118042 C 13.967521667480469 16.436198711395264 14.053123474121094 16.00607967376709 13.898284912109375 15.632132053375244 C 13.744590759277344 15.257731437683105 13.38055419921875 15.014472961425781 12.977607727050781 15.014472961425781 C 12.977607727050781 15.014472961425781 8.991172790527344 15.014472961425781 8.991172790527344 15.014472961425781 C 8.991172790527344 15.014472961425781 8.991172790527344 2.010563373565674 8.991172790527344 2.010563373565674 C 8.991172790527344 1.4576826095581055 8.545425415039062 1.0101232528686523 7.994621276855469 1.0101232528686523 C 7.443817138671875 1.0101232528686523 6.997955322265625 1.4576826095581055 6.997955322265625 2.010563373565674 C 6.997955322265625 2.010563373565674 6.997955322265625 15.014472961425781 6.997955322265625 15.014472961425781 C 6.997955322265625 15.014472961425781 3.0115203857421875 15.014472961425781 3.0115203857421875 15.014472961425781 C 2.6085739135742188 15.014472961425781 2.2446517944335938 15.257731437683105 2.0908432006835938 15.632132053375244 C 1.9361190795898438 16.00607967376709 2.0217208862304688 16.436198711395264 2.3069076538085938 16.72249174118042 Z M 10.57171630859375 17.015353202819824 C 10.57171630859375 17.015353202819824 7.994621276855469 19.602635860443115 7.994621276855469 19.602635860443115 C 7.994621276855469 19.602635860443115 5.417411804199219 17.015353202819824 5.417411804199219 17.015353202819824 C 5.417411804199219 17.015353202819824 10.57171630859375 17.015353202819824 10.57171630859375 17.015353202819824 Z"></path></g></svg></svg>
