<svg id="SvgjsSvg10776" width="118" height="23" xmlns="http://www.w3.org/2000/svg" version="1.1" xmlns:xlink="http://www.w3.org/1999/xlink" xmlns:svgjs="http://svgjs.com/svgjs" viewBox="0 0 118 23" fill="#151515" opacity="1"><defs id="SvgjsDefs10777"></defs><svg version="1.1" xmlns="http://www.w3.org/2000/svg" xmlns:xlink="http://www.w3.org/1999/xlink" width="118" height="23"><g><path fill="#151515" stroke="none" paint-order="stroke fill markers" fill-rule="evenodd" d=" M 2.9999542236328125 2.9997758865356445 C 2.9999542236328125 2.9997758865356445 19.999923706054688 2.9997758865356445 19.999923706054688 2.9997758865356445 C 19.999923706054688 2.9997758865356445 9.999961853027344 19.999783515930176 9.999961853027344 19.999783515930176 C 9.999961853027344 19.999783515930176 18.99993896484375 19.999783515930176 18.99993896484375 19.999783515930176 C 18.99993896484375 19.999783515930176 18.99993896484375 23.999958515167236 18.99993896484375 23.999958515167236 C 18.99993896484375 23.999958515167236 1.999969482421875 23.999958515167236 1.999969482421875 23.999958515167236 C 1.999969482421875 23.999958515167236 11.999931335449219 7.999938011169434 11.999931335449219 7.999938011169434 C 11.999931335449219 7.999938011169434 2.9999542236328125 7.999938011169434 2.9999542236328125 7.999938011169434 C 2.9999542236328125 7.999938011169434 2.9999542236328125 2.9997758865356445 2.9999542236328125 2.9997758865356445 Z M 34.99992370605469 23.999958515167236 C 28.924827575683594 23.999958515167236 23.999977111816406 19.07499361038208 23.999977111816406 12.999873638153076 C 23.999977111816406 12.333744049072266 24.06909942626953 11.684601783752441 24.182510375976562 11.051087856292725 C 24.182510375976562 11.051087856292725 29.908790588378906 16.141169548034668 29.908790588378906 16.141169548034668 C 30.96599578857422 17.850773811340332 32.842140197753906 18.999796390533447 34.99992370605469 18.999796390533447 C 38.31367492675781 18.999796390533447 40.99994659423828 16.313534259796143 40.99994659423828 12.999873638153076 C 40.99994659423828 9.68621301651001 38.31367492675781 6.999950885772705 34.99992370605469 6.999950885772705 C 32.756309509277344 6.999950885772705 30.823516845703125 8.245914459228516 29.79412078857422 10.069900035858154 C 29.79412078857422 10.069900035858154 25.9716796875 6.7252092361450195 25.9716796875 6.7252092361450195 C 27.958946228027344 3.8713388442993164 31.25885009765625 1.999788761138916 34.99992370605469 1.999788761138916 C 41.07501983642578 1.999788761138916 45.99998474121094 6.924753665924072 45.99998474121094 12.999873638153076 C 45.99998474121094 19.07499361038208 41.07501983642578 23.999958515167236 34.99992370605469 23.999958515167236 Z M 51.99989318847656 23.999958515167236 C 51.99989318847656 23.999958515167236 51.99989318847656 13.999860763549805 51.99989318847656 13.999860763549805 C 51.99989318847656 13.999860763549805 56.99993133544922 16.99982213973999 56.99993133544922 16.99982213973999 C 56.99993133544922 16.99982213973999 56.99993133544922 23.999958515167236 56.99993133544922 23.999958515167236 C 56.99993133544922 23.999958515167236 51.99989318847656 23.999958515167236 51.99989318847656 23.999958515167236 Z M 51.99989318847656 7.999938011169434 C 51.99989318847656 7.999938011169434 70.99994659423828 23.999958515167236 70.99994659423828 23.999958515167236 C 70.99994659423828 23.999958515167236 70.99994659423828 1.999788761138916 70.99994659423828 1.999788761138916 C 70.99994659423828 1.999788761138916 65.99990844726562 1.999788761138916 65.99990844726562 1.999788761138916 C 65.99990844726562 1.999788761138916 65.99990844726562 12.999873638153076 65.99990844726562 12.999873638153076 C 65.99990844726562 12.999873638153076 51.99989318847656 1.999788761138916 51.99989318847656 1.999788761138916 C 51.99989318847656 1.999788761138916 51.99989318847656 7.999938011169434 51.99989318847656 7.999938011169434 Z M 92.99995422363281 1.999788761138916 C 92.99995422363281 1.999788761138916 77.99995422363281 1.999788761138916 77.99995422363281 1.999788761138916 C 77.99995422363281 1.999788761138916 77.99995422363281 23.999958515167236 77.99995422363281 23.999958515167236 C 77.99995422363281 23.999958515167236 92.99995422363281 23.999958515167236 92.99995422363281 23.999958515167236 C 92.99995422363281 23.999958515167236 92.99995422363281 19.999783515930176 92.99995422363281 19.999783515930176 C 92.99995422363281 19.999783515930176 82.99999237060547 19.999783515930176 82.99999237060547 19.999783515930176 C 82.99999237060547 19.999783515930176 82.99999237060547 14.999847888946533 82.99999237060547 14.999847888946533 C 82.99999237060547 14.999847888946533 91.99996948242188 14.999847888946533 91.99996948242188 14.999847888946533 C 91.99996948242188 14.999847888946533 91.99996948242188 10.99989938735962 91.99996948242188 10.99989938735962 C 91.99996948242188 10.99989938735962 82.99999237060547 10.99989938735962 82.99999237060547 10.99989938735962 C 82.99999237060547 10.99989938735962 82.99999237060547 5.999963760375977 82.99999237060547 5.999963760375977 C 82.99999237060547 5.999963760375977 92.99995422363281 5.999963760375977 92.99995422363281 5.999963760375977 C 92.99995422363281 5.999963760375977 92.99995422363281 1.999788761138916 92.99995422363281 1.999788761138916 Z M 118.9999008178711 23.99973201751709 C 118.9999008178711 23.99973201751709 112.9998779296875 23.99973201751709 112.9998779296875 23.99973201751709 C 112.9998779296875 23.99973201751709 107.99983978271484 17.12484884262085 107.99983978271484 17.12484884262085 C 107.99983978271484 17.12484884262085 102.99991607666016 23.99973201751709 102.99991607666016 23.99973201751709 C 102.99991607666016 23.99973201751709 96.99989318847656 23.99973201751709 96.99989318847656 23.99973201751709 C 96.99989318847656 23.99973201751709 104.99988555908203 12.999873638153076 104.99988555908203 12.999873638153076 C 104.99988555908203 12.999873638153076 96.99989318847656 1.999788761138916 96.99989318847656 1.999788761138916 C 96.99989318847656 1.999788761138916 102.99991607666016 1.999788761138916 102.99991607666016 1.999788761138916 C 102.99991607666016 1.999788761138916 107.99983978271484 8.874898433685303 107.99983978271484 8.874898433685303 C 107.99983978271484 8.874898433685303 112.9998779296875 1.999788761138916 112.9998779296875 1.999788761138916 C 112.9998779296875 1.999788761138916 118.9999008178711 1.999788761138916 118.9999008178711 1.999788761138916 C 118.9999008178711 1.999788761138916 110.99990844726562 12.999873638153076 110.99990844726562 12.999873638153076 C 110.99990844726562 12.999873638153076 118.9999008178711 23.99973201751709 118.9999008178711 23.99973201751709 Z"></path></g></svg></svg>